<svg xmlns="http://www.w3.org/2000/svg" viewBox="0 0 461 129" width="461" height="129" xmlns:c2pa="http://c2pa.org/manifest"><metadata><c2pa:manifest>AAAWgmp1bWIAAAAeanVtZGMycGEAEQAQgAAAqgA4m3EDYzJwYQAAABZcanVtYgAAAEdqdW1kYzJtYQARABCAAACqADibcQN1cm46YzJwYTo2ZTRjNjYyYy02MGZjLTQ3YTctOGM0MS1mYzdkNDczOGRkNzYAAAADl2p1bWIAAAApanVtZGMyYXMAEQAQgAAAqgA4m3EDYzJwYS5hc3NlcnRpb25zAAAAALxqdW1iAAAARGp1bWRjYm9yABEAEIAAAKoAOJtxE2MycGEuaW5ncmVkaWVudC52MwAAAAAYYzJzaFR+9MQPAKoiNz7+ihmaHywAAABwY2JvcqNpZGM6Zm9ybWF0bWltYWdlL3N2Zyt4bWxqaW5zdGFuY2VJRHgseG1wOmlpZDpmOGZlZDU4My1hYTRlLTRkYzQtODFjZi0wM2RiYTU0N2QzZDlscmVsYXRpb25zaGlwaHBhcmVudE9mAAAB4mp1bWIAAABBanVtZGNib3IAEQAQgAAAqgA4m3ETYzJwYS5hY3Rpb25zLnYyAAAAABhjMnNowZt8SioAV8b42g1QkW/9bAAAAZljYm9yomdhY3Rpb25zgqJmYWN0aW9ua2MycGEub3BlbmVkanBhcmFtZXRlcnOha2luZ3JlZGllbnRzgaJjdXJseC1zZWxmI2p1bWJmPWMycGEuYXNzZXJ0aW9ucy9jMnBhLmluZ3JlZGllbnQudjNkaGFzaFgglKTPYFTRJjoH+tvh6/lIU4LPehMxpb7BLn7Es2wn1VGkZmFjdGlvbngdY29tLmFudGhyb3BpYy5jbGF1ZGUucHJvdmlkZWRqcGFyYW1ldGVyc6F4H2NvbS5hbnRocm9waWMub3JpZ2luLWNvbmZpZGVuY2VndW5rbm93bmtkZXNjcmlwdGlvbnhmQ2xhdWRlIHByb3ZpZGVkIHRoaXMgZmlsZSBhdCB0aGUgcmVxdWVzdCBvZiBhIHVzZXIgYW5kIG1heSBoYXZlIGNyZWF0ZWQgb3IgbW9kaWZpZWQgdGhlIGZpbGUgY29udGVudHMubXNvZnR3YXJlQWdlbnShZG5hbWVmQ2xhdWRlcmFsbEFjdGlvbnNJbmNsdWRlZPUAAADIanVtYgAAAEBqdW1kY2JvcgARABCAAACqADibcRNjMnBhLmhhc2guZGF0YQAAAAAYYzJzaK16FHuSZPd3Np/j3mnisM0AAACAY2JvcqVjYWxnZnNoYTI1NmNwYWRNAAAAAAAAAAAAAAAAAGRoYXNoWCDirAd9loiYyRa744t3SKi9b5GZ02NiOidPNcByMFkh0GRuYW1lbmp1bWJmIG1hbmlmZXN0amV4Y2x1c2lvbnOBomVzdGFydBiWZmxlbmd0aBkeBAAAAj5qdW1iAAAAJ2p1bWRjMmNsABEAEIAAAKoAOJtxA2MycGEuY2xhaW0udjIAAAACD2Nib3KlY2FsZ2ZzaGEyNTZpc2lnbmF0dXJleE1zZWxmI2p1bWJmPS9jMnBhL3VybjpjMnBhOjZlNGM2NjJjLTYwZmMtNDdhNy04YzQxLWZjN2Q0NzM4ZGQ3Ni9jMnBhLnNpZ25hdHVyZWppbnN0YW5jZUlEeCx4bXA6aWlkOjc0ZWVhMDA3LTdjODAtNGExOC1iOTI4LWRjNzRmNjExOTE5MHJjcmVhdGVkX2Fzc2VydGlvbnODomN1cmx4LXNlbGYjanVtYmY9YzJwYS5hc3NlcnRpb25zL2MycGEuaW5ncmVkaWVudC52M2RoYXNoWCCUpM9gVNEmOgf62+Hr+UhTgs96EzGlvsEufsSzbCfVUaJjdXJseCpzZWxmI2p1bWJmPWMycGEuYXNzZXJ0aW9ucy9jMnBhLmFjdGlvbnMudjJkaGFzaFggO+6urcBRW6MNck7Qt9VUiz/QjdkWZ2tkwKbLco2U5GKiY3VybHgpc2VsZiNqdW1iZj1jMnBhLmFzc2VydGlvbnMvYzJwYS5oYXNoLmRhdGFkaGFzaFggMxp6vRpKt5Af4oTUJdviM+Jh4vjB8iq2NXiej0+LDDV0Y2xhaW1fZ2VuZXJhdG9yX2luZm+jZG5hbWVvQW50aHJvcGljIEZpbGVzZ3ZlcnNpb25lMS4wLjBrc3BlY1ZlcnNpb25lMi40LjAAABA4anVtYgAAAChqdW1kYzJjcwARABCAAACqADibcQNjMnBhLnNpZ25hdHVyZQAAABAIY2JvctKEWQISogEmGCFZAgowggIGMIIBjaADAgECAhRA5aAK7sI50L64g/oGQgU9Z1UTADAKBggqhkjOPQQDAzBJMRcwFQYDVQQKEw5BbnRocm9waWMsIFBCQzEuMCwGA1UEAxMlQW50aHJvcGljIENvbnRlbnQgQ3JlZGVudGlhbHMgUm9vdCBDQTAeFw0yNjA4MDcxODQzNTZaFw0yODA4MDYxOTQzNTZaMEQxFzAVBgNVBAoTDkFudGhyb3BpYywgUEJDMSkwJwYDVQQDEyBBbnRocm9waWMgQ2xhdWRlIENvbnRlbnQgU2lnbmluZzBZMBMGByqGSM49AgEGCCqGSM49AwEHA0IABJh6CmvLUBgFFNU0vUKlOVtE6djd17L5SuwX0LemFisBM3dkd/3cyjxFA3Qo5S46fX0/ihY0VZ7mfb9KF703t5OjWDBWMA4GA1UdDwEB/wQEAwIHgDAVBgNVHSUEDjAMBgorBgEEAYPoXgIBMAwGA1UdEwEB/wQCMAAwHwYDVR0jBBgwFoAUzlHiBIFOZFsj+OPEz5o+nMHXXMIwCgYIKoZIzj0EAwMDZwAwZAIwMXMdFJ4BetLLVY7ORuE9noqbbAZOZn/aArXyTwFAZfKrPzxF2vPoJNf1+UCdg1XGAjBwX1zd9WGqYkqmL5SFqw1QySjr1zJfpJM9+1rdDwSPLMOPOjKuiXjoU/pUUeG9RwmhY3BhZFkNngAAAAAAAAAAAAAAAAAAAAAAAAAAAAAAAAAAAAAAAAAAAAAAAAAAAAAAAAAAAAAAAAAAAAAAAAAAAAAAAAAAAAAAAAAAAAAAAAAAAAAAAAAAAAAAAAAAAAAAAAAAAAAAAAAAAAAAAAAAAAAAAAAAAAAAAAAAAAAAAAAAAAAAAAAAAAAAAAAAAAAAAAAAAAAAAAAAAAAAAAAAAAAAAAAAAAAAAAAAAAAAAAAAAAAAAAAAAAAAAAAAAAAAAAAAAAAAAAAAAAAAAAAAAAAAAAAAAAAAAAAAAAAAAAAAAAAAAAAAAAAAAAAAAAAAAAAAAAAAAAAAAAAAAAAAAAAAAAAAAAAAAAAAAAAAAAAAAAAAAAAAAAAAAAAAAAAAAAAAAAAAAAAAAAAAAAAAAAAAAAAAAAAAAAAAAAAAAAAAAAAAAAAAAAAAAAAAAAAAAAAAAAAAAAAAAAAAAAAAAAAAAAAAAAAAAAAAAAAAAAAAAAAAAAAAAAAAAAAAAAAAAAAAAAAAAAAAAAAAAAAAAAAAAAAAAAAAAAAAAAAAAAAAAAAAAAAAAAAAAAAAAAAAAAAAAAAAAAAAAAAAAAAAAAAAAAAAAAAAAAAAAAAAAAAAAAAAAAAAAAAAAAAAAAAAAAAAAAAAAAAAAAAAAAAAAAAAAAAAAAAAAAAAAAAAAAAAAAAAAAAAAAAAAAAAAAAAAAAAAAAAAAAAAAAAAAAAAAAAAAAAAAAAAAAAAAAAAAAAAAAAAAAAAAAAAAAAAAAAAAAAAAAAAAAAAAAAAAAAAAAAAAAAAAAAAAAAAAAAAAAAAAAAAAAAAAAAAAAAAAAAAAAAAAAAAAAAAAAAAAAAAAAAAAAAAAAAAAAAAAAAAAAAAAAAAAAAAAAAAAAAAAAAAAAAAAAAAAAAAAAAAAAAAAAAAAAAAAAAAAAAAAAAAAAAAAAAAAAAAAAAAAAAAAAAAAAAAAAAAAAAAAAAAAAAAAAAAAAAAAAAAAAAAAAAAAAAAAAAAAAAAAAAAAAAAAAAAAAAAAAAAAAAAAAAAAAAAAAAAAAAAAAAAAAAAAAAAAAAAAAAAAAAAAAAAAAAAAAAAAAAAAAAAAAAAAAAAAAAAAAAAAAAAAAAAAAAAAAAAAAAAAAAAAAAAAAAAAAAAAAAAAAAAAAAAAAAAAAAAAAAAAAAAAAAAAAAAAAAAAAAAAAAAAAAAAAAAAAAAAAAAAAAAAAAAAAAAAAAAAAAAAAAAAAAAAAAAAAAAAAAAAAAAAAAAAAAAAAAAAAAAAAAAAAAAAAAAAAAAAAAAAAAAAAAAAAAAAAAAAAAAAAAAAAAAAAAAAAAAAAAAAAAAAAAAAAAAAAAAAAAAAAAAAAAAAAAAAAAAAAAAAAAAAAAAAAAAAAAAAAAAAAAAAAAAAAAAAAAAAAAAAAAAAAAAAAAAAAAAAAAAAAAAAAAAAAAAAAAAAAAAAAAAAAAAAAAAAAAAAAAAAAAAAAAAAAAAAAAAAAAAAAAAAAAAAAAAAAAAAAAAAAAAAAAAAAAAAAAAAAAAAAAAAAAAAAAAAAAAAAAAAAAAAAAAAAAAAAAAAAAAAAAAAAAAAAAAAAAAAAAAAAAAAAAAAAAAAAAAAAAAAAAAAAAAAAAAAAAAAAAAAAAAAAAAAAAAAAAAAAAAAAAAAAAAAAAAAAAAAAAAAAAAAAAAAAAAAAAAAAAAAAAAAAAAAAAAAAAAAAAAAAAAAAAAAAAAAAAAAAAAAAAAAAAAAAAAAAAAAAAAAAAAAAAAAAAAAAAAAAAAAAAAAAAAAAAAAAAAAAAAAAAAAAAAAAAAAAAAAAAAAAAAAAAAAAAAAAAAAAAAAAAAAAAAAAAAAAAAAAAAAAAAAAAAAAAAAAAAAAAAAAAAAAAAAAAAAAAAAAAAAAAAAAAAAAAAAAAAAAAAAAAAAAAAAAAAAAAAAAAAAAAAAAAAAAAAAAAAAAAAAAAAAAAAAAAAAAAAAAAAAAAAAAAAAAAAAAAAAAAAAAAAAAAAAAAAAAAAAAAAAAAAAAAAAAAAAAAAAAAAAAAAAAAAAAAAAAAAAAAAAAAAAAAAAAAAAAAAAAAAAAAAAAAAAAAAAAAAAAAAAAAAAAAAAAAAAAAAAAAAAAAAAAAAAAAAAAAAAAAAAAAAAAAAAAAAAAAAAAAAAAAAAAAAAAAAAAAAAAAAAAAAAAAAAAAAAAAAAAAAAAAAAAAAAAAAAAAAAAAAAAAAAAAAAAAAAAAAAAAAAAAAAAAAAAAAAAAAAAAAAAAAAAAAAAAAAAAAAAAAAAAAAAAAAAAAAAAAAAAAAAAAAAAAAAAAAAAAAAAAAAAAAAAAAAAAAAAAAAAAAAAAAAAAAAAAAAAAAAAAAAAAAAAAAAAAAAAAAAAAAAAAAAAAAAAAAAAAAAAAAAAAAAAAAAAAAAAAAAAAAAAAAAAAAAAAAAAAAAAAAAAAAAAAAAAAAAAAAAAAAAAAAAAAAAAAAAAAAAAAAAAAAAAAAAAAAAAAAAAAAAAAAAAAAAAAAAAAAAAAAAAAAAAAAAAAAAAAAAAAAAAAAAAAAAAAAAAAAAAAAAAAAAAAAAAAAAAAAAAAAAAAAAAAAAAAAAAAAAAAAAAAAAAAAAAAAAAAAAAAAAAAAAAAAAAAAAAAAAAAAAAAAAAAAAAAAAAAAAAAAAAAAAAAAAAAAAAAAAAAAAAAAAAAAAAAAAAAAAAAAAAAAAAAAAAAAAAAAAAAAAAAAAAAAAAAAAAAAAAAAAAAAAAAAAAAAAAAAAAAAAAAAAAAAAAAAAAAAAAAAAAAAAAAAAAAAAAAAAAAAAAAAAAAAAAAAAAAAAAAAAAAAAAAAAAAAAAAAAAAAAAAAAAAAAAAAAAAAAAAAAAAAAAAAAAAAAAAAAAAAAAAAAAAAAAAAAAAAAAAAAAAAAAAAAAAAAAAAAAAAAAAAAAAAAAAAAAAAAAAAAAAAAAAAAAAAAAAAAAAAAAAAAAAAAAAAAAAAAAAAAAAAAAAAAAAAAAAAAAAAAAAAAAAAAAAAAAAAAAAAAAAAAAAAAAAAAAAAAAAAAAAAAAAAAAAAAAAAAAAAAAAAAAAAAAAAAAAAAAAAAAAAAAAAAAAAAAAAAAAAAAAAAAAAAAAAAAAAAAAAAAAAAAAAAAAAAAAAAAAAAAAAAAAAAAAAAAAAAAAAAAAAAAAAAAAAAAAAAAAAAAAAAAAAAAAAAAAAAAAAAAAAAAAAAAAAAAAAAAAAAAAAAAAAAAAAAAAAAAAAAAAAAAAAAAAAAAAAAAAAAAAAAAAAAAAAAAAAAAAAAAAAAAAAAAAAAAAAAAAAAAAAAAAAAAAAAAAAAAAAAAAAAAAAAAAAAAAAAAAAAAAAAAAAAAAAAAAAAAAAAAAAAAAAAAAAAAAAAAAAAAAAAAAAAAAAAAAAAAAAAAAAAAAAAAAAAAAAAAAAAAAAAAAAAAAAAAAAAAAAAAAAAAAAAAAAAAAAAAAAAAAAAAAAAAAAAAAAAAAAAAAAAAAAAAAAAAAAAAAAAAAAAAAAAAAAAAAAAAAAAAAAAAAAAAAAAAAAAAAAAAAAAAAAAAAAAAAAAAAAAAAAAAAAAAAAAAAAAAAAAAAAAAAAAAAAAAAAAAAAAAAAAAAAAAAAAAAAAAAAAAAAAAAAAAAAAAAAAAAAAAAAAAAAAAAAAAAAAAAAAAAAAAAAAAAAAAAAAAAAAAAAAAAAAAAAAAAAAAAAAAAAAAAAAAAAAAAAAAAAAAAAAAAAAAAAAAAAAAAAAAAAAAAAAAAAAAAAAAAAAAAAAAAAAAAAAAAAAAAAAAAAAAAAAAAAAAAAAAAAAAAAAAAAAAAAAAAAAAAAAAAAAAAAAAAAAAAAAAAAAAAAAAAAAAAAAAAAAAAAAAAAAAAAAAAAAAAAAAAAAAAAAAAAAAAAAAAAAAAAAAAAAAAAAAAAAAAAAAAAAAAAAAAAAAAAAAAAAAAAAAAAAAAAAAAAAAAAAAAAAAAAAAAAAAAAAAAAAAAAAAAAAAAAAAAAAAAAAAAAAAAAAAAAAAAAAAAAAAAAAAAAAAAAAAAAAAAAAAAAAAAAAAAAAAAAAAAAAAAAAAAAAAAAAAAAAAAAAAAAAAAAAAAAAAAAAAAAAAAAAAAAAAAAAAAAAAAAAAAAAAAAAAAAAAAAAAAAAAAAAAAAAAAAAAAAAAAAAAAAAAAAAAAAAAAAAAAAAAAAAAAAAAAAAAAAAAAAAAAAAAAAAAAAAAAAAAAAAAAAAAAAAAAAAAAAAAAAAAAAAAAAAAAAAAAAAAAAAAAAAAAAAAAAAAAAAAAAAAAAAAAAAAAAAAAAAAAAAAAAAAAAAAAAAAAAAAAAAAAAAAAAAAAAAAAAAAAAAAAAAAAAAAAAAAAAAAAAAAAAAAAAAAAAAAAAAAAAAAAAAAAAAAAAAAAAAAAAAAAAAAAAAAAAAAAAAAAAAAAAAAAAAAAAAAAAAAAAAAAAAAAAAAAAAAAAAAAAAAAAAAAAAAAAAAAAAAAAAAAAAAAAAAAAAAAAAAAAAAAAAAAAAAAAAAAAAAAAAAAAAAAAAAAAAAAAAAAAAAAAAAAAAAAAAAAAAAAAAAAAAAAAAAAAAAAAAAAAAAAAAAAAAAAAAAAAAAAAAAAAAAAAAAAAAAAAAAAAAAAAAAAAAAAAAAAAAAAAAAAAAAAAAAAAAAAAAAAAAAAAAAAPZYQFozpCgEPVxF5XlvF+XrEvdMHIELS3jDaq6AJ4cCVAxB3SicLKLvxjtl54/OGWq+LsRfBVS34RdkQLuJHBIatPQ=</c2pa:manifest></metadata><rect width="100%" height="100%" rx="24" fill="#ffffff"></rect><g transform="translate(24 24)"><g transform="translate(0 0.00) scale(.88)"><g><circle cx="21" cy="15" r="15" fill="#2f4a8a"></circle><circle cx="79" cy="15" r="15" fill="#2f4a8a"></circle><rect x="0" y="16" width="100" height="76" rx="30" fill="#2f4a8a"></rect><circle cx="34" cy="49" r="5" fill="#1d2238"></circle><circle cx="66" cy="49" r="5" fill="#1d2238"></circle><rect x="40" y="64" width="20" height="7" rx="3.5" fill="#1d2238"></rect></g></g><g transform="translate(108 61.56)"><path d="M13.98 0.54L13.98 0.54Q11.52 0.54 9.63 0.27Q7.74 0 6.39-0.72Q5.04-1.44 4.20-2.70Q3.36-3.96 2.97-5.97Q2.58-7.98 2.58-10.92L2.58-10.92L2.58-38.64Q2.58-39.84 2.79-40.86Q3-41.88 3.96-42.54Q4.92-43.20 7.08-43.20L7.08-43.20Q9.24-43.20 10.17-42.54Q11.10-41.88 11.34-40.86Q11.58-39.84 11.58-38.64L11.58-38.64L11.58-11.34Q11.58-10.38 11.67-9.75Q11.76-9.12 12.03-8.76Q12.30-8.40 12.78-8.28Q13.26-8.16 14.04-8.16L14.04-8.16Q14.76-8.16 15.51-7.98Q16.26-7.80 16.80-6.90Q17.34-6 17.34-3.90L17.34-3.90Q17.34-1.74 16.80-0.78Q16.26 0.18 15.51 0.36Q14.76 0.54 13.98 0.54ZM45 0.48L45 0.48Q42.78 0.48 41.73-0.30Q40.68-1.08 40.68-2.22L40.68-2.22L41.28-3.24Q40.92-2.64 39.90-1.77Q38.88-0.90 37.26-0.21Q35.64 0.48 33.24 0.48L33.24 0.48Q30.48 0.48 27.99-0.72Q25.50-1.92 23.58-4.05Q21.66-6.18 20.55-8.88Q19.44-11.58 19.44-14.58L19.44-14.58Q19.44-17.52 20.55-20.19Q21.66-22.86 23.61-24.93Q25.56-27 28.02-28.20Q30.48-29.40 33.24-29.40L33.24-29.40Q35.46-29.40 37.02-28.77Q38.58-28.14 39.63-27.30Q40.68-26.46 41.22-25.68L41.22-25.68L40.74-26.52Q40.68-27.96 41.73-28.71Q42.78-29.46 45.06-29.46L45.06-29.46Q47.22-29.46 48.15-28.80Q49.08-28.14 49.29-27.06Q49.50-25.98 49.50-24.78L49.50-24.78L49.50-4.08Q49.50-2.94 49.29-1.86Q49.08-0.78 48.15-0.15Q47.22 0.48 45 0.48ZM34.56-8.46L34.56-8.46Q36.12-8.46 37.41-9.27Q38.70-10.08 39.45-11.46Q40.20-12.84 40.20-14.52L40.20-14.52Q40.20-16.26 39.42-17.61Q38.64-18.96 37.32-19.77Q36-20.58 34.44-20.58L34.44-20.58Q32.70-20.58 31.35-19.74Q30-18.90 29.19-17.52Q28.38-16.14 28.38-14.40L28.38-14.40Q28.38-12.78 29.19-11.43Q30-10.08 31.41-9.27Q32.82-8.46 34.56-8.46ZM67.20 0.48L67.20 0.48Q64.44 0.48 62.01-0.60Q59.58-1.68 57.78-3.63Q55.98-5.58 54.99-8.25Q54-10.92 54-14.10L54-14.10L54-24.96Q54-26.16 54.24-27.18Q54.48-28.20 55.41-28.86Q56.34-29.52 58.56-29.52L58.56-29.52Q60.78-29.52 61.71-28.86Q62.64-28.20 62.85-27.15Q63.06-26.10 63.06-24.90L63.06-24.90L63.06-14.10Q63.06-12.36 63.69-11.07Q64.32-9.78 65.55-9.12Q66.78-8.46 68.46-8.46L68.46-8.46Q70.20-8.46 71.43-9.15Q72.66-9.84 73.35-11.10Q74.04-12.36 74.04-14.10L74.04-14.10L74.04-25.02Q74.04-26.22 74.28-27.24Q74.52-28.26 75.45-28.89Q76.38-29.52 78.60-29.52L78.60-29.52Q80.82-29.52 81.75-28.86Q82.68-28.20 82.89-27.15Q83.10-26.10 83.10-24.96L83.10-24.96L83.10-3.84Q83.10-2.70 82.89-1.71Q82.68-0.72 81.72-0.12Q80.76 0.48 78.60 0.48L78.60 0.48Q76.98 0.48 76.08 0.12Q75.18-0.24 74.76-0.78Q74.34-1.32 74.25-1.92Q74.16-2.52 74.16-3L74.16-3L74.94-3.66Q74.76-3.42 74.16-2.76Q73.56-2.10 72.57-1.35Q71.58-0.60 70.26-0.06Q68.94 0.48 67.20 0.48ZM98.70 1.02L98.70 1.02Q97.08 1.02 95.19 0.66Q93.30 0.30 91.50-0.39Q89.70-1.08 88.50-2.01Q87.30-2.94 87.12-4.14L87.12-4.14Q87-4.74 87.15-5.43Q87.30-6.12 87.72-6.87Q88.14-7.62 88.74-8.46L88.74-8.46Q89.22-9.12 89.82-9.30Q90.42-9.48 91.20-9.24L91.20-9.24Q92.16-9.06 93.15-8.61Q94.14-8.16 95.13-7.65Q96.12-7.14 97.20-6.75Q98.28-6.36 99.42-6.36L99.42-6.36Q101.10-6.36 102.03-6.87Q102.96-7.38 102.96-8.28L102.96-8.28Q102.96-8.94 102.57-9.36Q102.18-9.78 101.49-10.11Q100.80-10.44 99.90-10.68Q99-10.92 97.95-11.19Q96.90-11.46 95.82-11.76L95.82-11.76Q94.32-12.18 92.94-12.84Q91.56-13.50 90.42-14.55Q89.28-15.60 88.62-17.13Q87.96-18.66 87.96-20.88L87.96-20.88Q87.96-23.82 89.34-25.80Q90.72-27.78 93.36-28.83Q96-29.88 99.78-29.88L99.78-29.88Q100.86-29.88 101.94-29.76Q103.02-29.64 104.07-29.34Q105.12-29.04 106.14-28.62Q107.16-28.20 108.18-27.60L108.18-27.60Q109.98-26.76 110.04-25.32Q110.10-23.88 109.02-22.38L109.02-22.38Q108.36-21.36 107.64-20.91Q106.92-20.46 106.14-20.64L106.14-20.64Q105.18-20.88 104.07-21.42Q102.96-21.96 101.73-22.44Q100.50-22.92 99.30-22.92L99.30-22.92Q98.28-22.92 97.56-22.65Q96.84-22.38 96.48-21.93Q96.12-21.48 96.12-20.88L96.12-20.88Q96.12-20.10 96.57-19.65Q97.02-19.20 97.80-18.90Q98.58-18.60 99.60-18.36Q100.62-18.12 101.82-17.88L101.82-17.88Q103.44-17.58 105.15-17.07Q106.86-16.56 108.27-15.60Q109.68-14.64 110.55-13.02Q111.42-11.40 111.42-8.76L111.42-8.76Q111.42-4.02 108.12-1.50Q104.82 1.02 98.70 1.02ZM130.20 0.78L130.20 0.78Q127.56 0.78 124.83-0.21Q122.10-1.20 119.79-3.15Q117.48-5.10 116.10-7.95Q114.72-10.80 114.72-14.52L114.72-14.52Q114.72-18.24 116.10-21.06Q117.48-23.88 119.76-25.80Q122.04-27.72 124.77-28.71Q127.50-29.70 130.08-29.70L130.08-29.70Q132.30-29.70 134.07-29.19Q135.84-28.68 137.07-27.96Q138.30-27.24 138.84-26.70L138.84-26.70Q139.86-25.92 140.64-25.14Q141.42-24.36 141.36-23.10L141.36-23.10Q141.30-22.44 140.94-21.75Q140.58-21.06 140.04-20.34L140.04-20.34Q138.24-17.82 136.44-18.06L136.44-18.06Q135.54-18.24 134.79-18.66Q134.04-19.08 133.35-19.53Q132.66-19.98 131.88-20.28Q131.10-20.58 130.08-20.58L130.08-20.58Q128.34-20.58 126.96-19.80Q125.58-19.02 124.77-17.64Q123.96-16.26 123.96-14.46L123.96-14.46Q123.96-12.72 124.77-11.34Q125.58-9.96 126.93-9.15Q128.28-8.34 129.96-8.34L129.96-8.34Q130.98-8.34 131.73-8.58Q132.48-8.82 133.02-9.15Q133.56-9.48 133.86-9.66L133.86-9.66Q134.58-10.14 135.24-10.53Q135.90-10.92 136.62-10.92L136.62-10.92Q137.46-10.92 138.36-10.29Q139.26-9.66 140.34-8.28L140.34-8.28Q141.30-7.02 141.45-5.94Q141.60-4.86 140.94-3.90Q140.28-2.94 138.90-2.04L138.90-2.04Q138.42-1.62 137.19-0.96Q135.96-0.30 134.19 0.24Q132.42 0.78 130.20 0.78ZM149.94 0.54L149.94 0.54Q147.78 0.54 146.82-0.09Q145.86-0.72 145.65-1.77Q145.44-2.82 145.44-4.02L145.44-4.02L145.44-38.58Q145.44-39.78 145.68-40.80Q145.92-41.82 146.88-42.45Q147.84-43.08 150-43.08L150-43.08Q152.22-43.08 153.15-42.42Q154.08-41.76 154.29-40.74Q154.50-39.72 154.50-38.52L154.50-38.52L154.50-26.28Q155.58-27.42 157.29-28.44Q159-29.46 161.34-29.46L161.34-29.46Q165.06-29.46 168.03-27.57Q171-25.68 172.77-22.38Q174.54-19.08 174.54-14.82L174.54-14.82L174.54-3.96Q174.54-2.76 174.30-1.74Q174.06-0.72 173.16-0.09Q172.26 0.54 169.98 0.54L169.98 0.54Q167.88 0.54 166.89-0.09Q165.90-0.72 165.69-1.77Q165.48-2.82 165.48-4.02L165.48-4.02L165.48-14.88Q165.48-16.62 164.88-17.85Q164.28-19.08 163.11-19.80Q161.94-20.52 160.26-20.52L160.26-20.52Q158.04-20.52 156.39-19.17Q154.74-17.82 154.50-15.90L154.50-15.90L154.50-3.96Q154.50-2.76 154.26-1.74Q154.02-0.72 153.09-0.09Q152.16 0.54 149.94 0.54Z" fill="#1d2238"></path><path d="M194.82-14.58L203.70-7.62Q205.56-6 205.68-4.53Q205.80-3.06 204.06-1.14L204.06-1.14Q202.74 0.24 201.75 0.66Q200.76 1.08 199.80 0.69Q198.84 0.30 197.58-0.84L197.58-0.84L188.10-9.12L188.10-3.96Q188.10-2.76 187.89-1.74Q187.68-0.72 186.75-0.09Q185.82 0.54 183.60 0.54L183.60 0.54Q181.44 0.54 180.48-0.09Q179.52-0.72 179.31-1.77Q179.10-2.82 179.10-4.02L179.10-4.02L179.10-38.64Q179.10-39.84 179.34-40.86Q179.58-41.88 180.54-42.51Q181.50-43.14 183.66-43.14L183.66-43.14Q185.82-43.14 186.75-42.51Q187.68-41.88 187.89-40.83Q188.10-39.78 188.10-38.58L188.10-38.58L188.10-20.46L194.82-26.94Q196.02-28.08 197.07-28.50Q198.12-28.92 199.14-28.56Q200.16-28.20 201.30-26.94L201.30-26.94Q203.22-24.84 203.16-23.55Q203.10-22.26 201.30-20.46L201.30-20.46L194.82-14.58ZM213.96 0.54L213.96 0.54Q211.74 0.54 210.81-0.09Q209.88-0.72 209.67-1.77Q209.46-2.82 209.46-3.96L209.46-3.96L209.46-24.90Q209.46-26.10 209.67-27.12Q209.88-28.14 210.84-28.77Q211.80-29.40 214.02-29.40L214.02-29.40Q216.18-29.40 217.11-28.74Q218.04-28.08 218.25-27.06Q218.46-26.04 218.46-24.78L218.46-24.78L218.46-3.90Q218.46-2.76 218.25-1.71Q218.04-0.66 217.11-0.06Q216.18 0.54 213.96 0.54ZM213.96-33.78L213.96-33.78Q211.68-33.78 210.72-34.44Q209.76-35.10 209.55-36.18Q209.34-37.26 209.34-38.46L209.34-38.46Q209.34-39.72 209.58-40.77Q209.82-41.82 210.78-42.45Q211.74-43.08 214.02-43.08L214.02-43.08Q216.24-43.08 217.20-42.42Q218.16-41.76 218.37-40.68Q218.58-39.60 218.58-38.40L218.58-38.40Q218.58-37.20 218.37-36.12Q218.16-35.04 217.20-34.41Q216.24-33.78 213.96-33.78ZM234.48 1.02L234.48 1.02Q232.86 1.02 230.97 0.66Q229.08 0.30 227.28-0.39Q225.48-1.08 224.28-2.01Q223.08-2.94 222.90-4.14L222.90-4.14Q222.78-4.74 222.93-5.43Q223.08-6.12 223.50-6.87Q223.92-7.62 224.52-8.46L224.52-8.46Q225.00-9.12 225.60-9.30Q226.20-9.48 226.98-9.24L226.98-9.24Q227.94-9.06 228.93-8.61Q229.92-8.16 230.91-7.65Q231.90-7.14 232.98-6.75Q234.06-6.36 235.20-6.36L235.20-6.36Q236.88-6.36 237.81-6.87Q238.74-7.38 238.74-8.28L238.74-8.28Q238.74-8.94 238.35-9.36Q237.96-9.78 237.27-10.11Q236.58-10.44 235.68-10.68Q234.78-10.92 233.73-11.19Q232.68-11.46 231.60-11.76L231.60-11.76Q230.10-12.18 228.72-12.84Q227.34-13.50 226.20-14.55Q225.06-15.60 224.40-17.13Q223.74-18.66 223.74-20.88L223.74-20.88Q223.74-23.82 225.12-25.80Q226.50-27.78 229.14-28.83Q231.78-29.88 235.56-29.88L235.56-29.88Q236.64-29.88 237.72-29.76Q238.80-29.64 239.85-29.34Q240.90-29.04 241.92-28.62Q242.94-28.20 243.96-27.60L243.96-27.60Q245.76-26.76 245.82-25.32Q245.88-23.88 244.80-22.38L244.80-22.38Q244.14-21.36 243.42-20.91Q242.70-20.46 241.92-20.64L241.92-20.64Q240.96-20.88 239.85-21.42Q238.74-21.96 237.51-22.44Q236.28-22.92 235.08-22.92L235.08-22.92Q234.06-22.92 233.34-22.65Q232.62-22.38 232.26-21.93Q231.90-21.48 231.90-20.88L231.90-20.88Q231.90-20.10 232.35-19.65Q232.80-19.20 233.58-18.90Q234.36-18.60 235.38-18.36Q236.40-18.12 237.60-17.88L237.60-17.88Q239.22-17.58 240.93-17.07Q242.64-16.56 244.05-15.60Q245.46-14.64 246.33-13.02Q247.20-11.40 247.20-8.76L247.20-8.76Q247.20-4.02 243.90-1.50Q240.60 1.02 234.48 1.02ZM266.58 0.54L266.58 0.54Q263.52 0.54 261.33-0.12Q259.14-0.78 257.70-2.16Q256.26-3.54 255.57-5.67Q254.88-7.80 254.88-10.74L254.88-10.74L254.88-35.10Q254.88-36.30 255.09-37.26Q255.30-38.22 256.26-38.85Q257.22-39.48 259.38-39.48L259.38-39.48Q261.54-39.48 262.50-38.82Q263.46-38.16 263.67-37.14Q263.88-36.12 263.88-34.92L263.88-34.92L263.88-11.10Q263.88-10.14 264.03-9.51Q264.18-8.88 264.48-8.58Q264.78-8.28 265.32-8.16Q265.86-8.04 266.64-8.04L266.64-8.04Q267.96-8.04 268.98-7.80Q270-7.56 270.57-6.72Q271.14-5.88 271.14-3.90L271.14-3.90Q271.14-1.74 270.48-0.78Q269.82 0.18 268.77 0.36Q267.72 0.54 266.58 0.54ZM253.02-28.98L253.02-28.98L259.62-28.98L267.90-29.22Q269.04-29.22 270.06-29.01Q271.08-28.80 271.74-27.84Q272.40-26.88 272.40-24.66L272.40-24.66Q272.40-22.62 271.77-21.66Q271.14-20.70 270.12-20.43Q269.10-20.16 267.90-20.16L267.90-20.16L260.04-20.34L252.78-20.34Q251.04-20.40 250.35-21.39Q249.66-22.38 249.66-24.72L249.66-24.72Q249.66-26.88 250.50-27.93Q251.34-28.98 253.02-28.98ZM290.70 1.08L290.70 1.08Q286.50 1.08 283.47-0.30Q280.44-1.68 278.52-3.93Q276.60-6.18 275.67-8.94Q274.74-11.70 274.74-14.46L274.74-14.46Q274.74-18.96 276.78-22.44Q278.82-25.92 282.42-27.93Q286.02-29.94 290.70-29.94L290.70-29.94Q294.18-29.94 296.73-28.83Q299.28-27.72 300.93-25.95Q302.58-24.18 303.39-22.14Q304.20-20.10 304.20-18.24L304.20-18.24Q304.20-14.94 302.61-13.35Q301.02-11.76 298.56-11.76L298.56-11.76L284.28-11.76Q284.40-10.20 285.39-9.12Q286.38-8.04 287.88-7.44Q289.38-6.84 291.06-6.84L291.06-6.84Q292.50-6.84 293.58-6.99Q294.66-7.14 295.44-7.41Q296.22-7.68 296.88-7.95Q297.54-8.22 298.05-8.40Q298.56-8.58 299.04-8.64L299.04-8.64Q299.94-8.70 300.69-8.13Q301.44-7.56 302.04-6.42L302.04-6.42Q302.46-5.76 302.61-5.16Q302.76-4.56 302.76-3.96L302.76-3.96Q302.76-2.52 301.29-1.38Q299.82-0.24 297.15 0.42Q294.48 1.08 290.70 1.08ZM284.28-16.68L284.28-16.68L293.76-16.68Q294.72-16.68 295.17-17.01Q295.62-17.34 295.62-18.30L295.62-18.30Q295.62-19.38 294.96-20.19Q294.30-21 293.19-21.45Q292.08-21.90 290.64-21.90L290.64-21.90Q288.78-21.90 287.34-21.18Q285.90-20.46 285.09-19.26Q284.28-18.06 284.28-16.68Z" fill="#2f4a8a"></path></g></g></svg>